<?xml version="1.0" encoding="UTF-8"?>
<!DOCTYPE svg PUBLIC "-//W3C//DTD SVG 1.1//EN" "http://www.w3.org/Graphics/SVG/1.1/DTD/svg11.dtd">
<svg xmlns="http://www.w3.org/2000/svg" version="1.1" width="512px" height="512px" style="shape-rendering:geometricPrecision; text-rendering:geometricPrecision; image-rendering:optimizeQuality; fill-rule:evenodd; clip-rule:evenodd" xmlns:xlink="http://www.w3.org/1999/xlink">
<g><path style="opacity:0.997" fill="#fb7b82" d="M 232.5,-0.5 C 247.833,-0.5 263.167,-0.5 278.5,-0.5C 368.144,10.3879 435.644,54.7213 481,132.5C 497.695,163.971 507.861,197.304 511.5,232.5C 511.5,247.833 511.5,263.167 511.5,278.5C 510.17,288.432 508.504,298.432 506.5,308.5C 432.833,235.167 359.167,161.833 285.5,88.5C 239.167,87.1667 192.833,87.1667 146.5,88.5C 146.5,102.167 146.5,115.833 146.5,129.5C 146.5,136.5 146.5,143.5 146.5,150.5C 146.5,157.167 146.5,163.833 146.5,170.5C 146.5,201.167 146.5,231.833 146.5,262.5C 146.333,281.503 146.5,300.503 147,319.5C 160.035,332.702 173.202,345.702 186.5,358.5C 194.833,367.5 203.5,376.167 212.5,384.5C 226.5,399.167 240.833,413.5 255.5,427.5C 258.5,430.167 261.5,432.833 264.5,435.5C 264.062,435.435 263.728,435.601 263.5,436C 285.368,457.701 307.035,479.535 328.5,501.5C 311.996,506.267 295.33,509.601 278.5,511.5C 263.167,511.5 247.833,511.5 232.5,511.5C 142.856,500.612 75.3562,456.279 30,378.5C 13.3053,347.029 3.1386,313.696 -0.5,278.5C -0.5,263.167 -0.5,247.833 -0.5,232.5C 10.3875,142.857 54.7208,75.3573 132.5,30C 163.971,13.3053 197.304,3.1386 232.5,-0.5 Z"/></g>
<g><path style="opacity:1" fill="#fab935" d="M 146.5,88.5 C 169.5,88.5 192.5,88.5 215.5,88.5C 215.5,102.167 215.5,115.833 215.5,129.5C 192.5,129.5 169.5,129.5 146.5,129.5C 146.5,115.833 146.5,102.167 146.5,88.5 Z"/></g>
<g><path style="opacity:1" fill="#fba32b" d="M 215.5,88.5 C 238.5,88.5 261.5,88.5 284.5,88.5C 284.5,102.167 284.5,115.833 284.5,129.5C 261.833,129.5 239.167,129.5 216.5,129.5C 216.167,129.5 215.833,129.5 215.5,129.5C 215.5,115.833 215.5,102.167 215.5,88.5 Z"/></g>
<g><path style="opacity:1" fill="#fa455c" d="M 285.5,88.5 C 359.167,161.833 432.833,235.167 506.5,308.5C 486.834,391.326 438.834,451.493 362.5,489C 351.472,494.015 340.138,498.182 328.5,501.5C 307.035,479.535 285.368,457.701 263.5,436C 263.728,435.601 264.062,435.435 264.5,435.5C 278.074,444.644 293.074,448.644 309.5,447.5C 325.905,445.628 339.905,438.962 351.5,427.5C 365.481,413.925 372.481,397.258 372.5,377.5C 372.029,359.058 365.363,343.391 352.5,330.5C 335.833,313.167 318.833,296.167 301.5,279.5C 296.536,274.035 291.37,268.702 286,263.5C 285.501,258.845 285.334,254.179 285.5,249.5C 285.5,195.833 285.5,142.167 285.5,88.5 Z"/></g>
<g><path style="opacity:1" fill="#fcd337" d="M 146.5,129.5 C 169.5,129.5 192.5,129.5 215.5,129.5C 215.833,129.5 216.167,129.5 216.5,129.5C 216.5,136.5 216.5,143.5 216.5,150.5C 216.167,150.5 215.833,150.5 215.5,150.5C 192.5,150.5 169.5,150.5 146.5,150.5C 146.5,143.5 146.5,136.5 146.5,129.5 Z"/></g>
<g><path style="opacity:1" fill="#fab934" d="M 216.5,129.5 C 239.167,129.5 261.833,129.5 284.5,129.5C 284.5,136.5 284.5,143.5 284.5,150.5C 261.833,150.5 239.167,150.5 216.5,150.5C 216.5,143.5 216.5,136.5 216.5,129.5 Z"/></g>
<g><path style="opacity:1" fill="#fab935" d="M 146.5,150.5 C 169.5,150.5 192.5,150.5 215.5,150.5C 215.5,157.167 215.5,163.833 215.5,170.5C 192.5,170.5 169.5,170.5 146.5,170.5C 146.5,163.833 146.5,157.167 146.5,150.5 Z"/></g>
<g><path style="opacity:1" fill="#fba32b" d="M 215.5,150.5 C 215.833,150.5 216.167,150.5 216.5,150.5C 239.167,150.5 261.833,150.5 284.5,150.5C 284.5,157.167 284.5,163.833 284.5,170.5C 261.833,170.5 239.167,170.5 216.5,170.5C 216.167,170.5 215.833,170.5 215.5,170.5C 215.5,163.833 215.5,157.167 215.5,150.5 Z"/></g>
<g><path style="opacity:1" fill="#fdd337" d="M 216.5,291.5 C 245.632,321.132 274.965,350.632 304.5,380C 301.964,382.705 299.297,385.205 296.5,387.5C 291.072,380.074 283.738,377.241 274.5,379C 269.533,382.966 264.866,387.299 260.5,392C 255.386,394.37 250.72,393.703 246.5,390C 243.167,385.333 239.167,381.333 234.5,378C 229.833,376 225.167,376 220.5,378C 217.669,380.001 215.003,382.167 212.5,384.5C 203.5,376.167 194.833,367.5 186.5,358.5C 189.648,354.226 192.815,349.892 196,345.5C 208.223,323.431 207.223,302.098 193,281.5C 180.73,268.454 165.563,262.121 147.5,262.5C 147.5,232.167 147.5,201.833 147.5,171.5C 170.167,171.5 192.833,171.5 215.5,171.5C 215.168,211.67 215.501,251.67 216.5,291.5 Z"/></g>
<g><path style="opacity:1" fill="#fbc738" d="M 146.5,170.5 C 169.5,170.5 192.5,170.5 215.5,170.5C 215.833,170.5 216.167,170.5 216.5,170.5C 216.5,210.833 216.5,251.167 216.5,291.5C 215.501,251.67 215.168,211.67 215.5,171.5C 192.833,171.5 170.167,171.5 147.5,171.5C 147.5,201.833 147.5,232.167 147.5,262.5C 147.167,262.5 146.833,262.5 146.5,262.5C 146.5,231.833 146.5,201.167 146.5,170.5 Z"/></g>
<g><path style="opacity:1" fill="#f9b935" d="M 216.5,170.5 C 239.167,170.5 261.833,170.5 284.5,170.5C 284.5,196.833 284.5,223.167 284.5,249.5C 281.796,252.303 278.463,253.137 274.5,252C 262.414,242.422 256.247,245.255 256,260.5C 258.295,263.797 260.962,266.797 264,269.5C 264.706,271.971 264.373,274.305 263,276.5C 260.333,279.167 257.667,281.833 255,284.5C 253.351,290.695 255.184,295.528 260.5,299C 262.833,299.667 265.167,299.667 267.5,299C 270.734,295.855 273.734,292.522 276.5,289C 278.167,288.333 279.833,288.333 281.5,289C 285.079,293.491 288.412,298.157 291.5,303C 296.42,306.598 300.92,306.098 305,301.5C 305.167,300.5 305.333,299.5 305.5,298.5C 304.188,293.046 302.188,287.879 299.5,283C 299.978,281.697 300.645,280.531 301.5,279.5C 318.833,296.167 335.833,313.167 352.5,330.5C 352.631,331.239 352.464,331.906 352,332.5C 336.125,348.041 320.625,363.874 305.5,380C 320.66,395.994 335.994,411.827 351.5,427.5C 339.905,438.962 325.905,445.628 309.5,447.5C 310.075,441.555 307.741,437.055 302.5,434C 295.643,430.805 290.476,425.971 287,419.5C 286.333,417.167 286.333,414.833 287,412.5C 290.764,407.073 294.097,401.407 297,395.5C 297.789,393.288 297.622,391.288 296.5,389.5C 296.5,388.833 296.5,388.167 296.5,387.5C 299.297,385.205 301.964,382.705 304.5,380C 274.965,350.632 245.632,321.132 216.5,291.5C 216.5,251.167 216.5,210.833 216.5,170.5 Z"/></g>
<g><path style="opacity:1" fill="#fa9942" d="M 146.5,88.5 C 192.833,87.1667 239.167,87.1667 285.5,88.5C 285.5,142.167 285.5,195.833 285.5,249.5C 285.167,249.5 284.833,249.5 284.5,249.5C 284.5,223.167 284.5,196.833 284.5,170.5C 284.5,163.833 284.5,157.167 284.5,150.5C 284.5,143.5 284.5,136.5 284.5,129.5C 284.5,115.833 284.5,102.167 284.5,88.5C 261.5,88.5 238.5,88.5 215.5,88.5C 192.5,88.5 169.5,88.5 146.5,88.5 Z"/></g>
<g><path style="opacity:1" fill="#e9ebf2" d="M 284.5,249.5 C 284.833,249.5 285.167,249.5 285.5,249.5C 285.334,254.179 285.501,258.845 286,263.5C 291.37,268.702 296.536,274.035 301.5,279.5C 300.645,280.531 299.978,281.697 299.5,283C 302.188,287.879 304.188,293.046 305.5,298.5C 305.333,299.5 305.167,300.5 305,301.5C 300.92,306.098 296.42,306.598 291.5,303C 288.412,298.157 285.079,293.491 281.5,289C 279.833,288.333 278.167,288.333 276.5,289C 273.734,292.522 270.734,295.855 267.5,299C 265.167,299.667 262.833,299.667 260.5,299C 255.184,295.528 253.351,290.695 255,284.5C 257.667,281.833 260.333,279.167 263,276.5C 264.373,274.305 264.706,271.971 264,269.5C 260.962,266.797 258.295,263.797 256,260.5C 256.247,245.255 262.414,242.422 274.5,252C 278.463,253.137 281.796,252.303 284.5,249.5 Z"/></g>
<g><path style="opacity:1" fill="#fab935" d="M 146.5,262.5 C 146.833,262.5 147.167,262.5 147.5,262.5C 165.563,262.121 180.73,268.454 193,281.5C 207.223,302.098 208.223,323.431 196,345.5C 192.815,349.892 189.648,354.226 186.5,358.5C 173.202,345.702 160.035,332.702 147,319.5C 146.5,300.503 146.333,281.503 146.5,262.5 Z"/></g>
<g><path style="opacity:1" fill="#faa22b" d="M 352.5,330.5 C 365.363,343.391 372.029,359.058 372.5,377.5C 372.481,397.258 365.481,413.925 351.5,427.5C 335.994,411.827 320.66,395.994 305.5,380C 320.625,363.874 336.125,348.041 352,332.5C 352.464,331.906 352.631,331.239 352.5,330.5 Z"/></g>
<g><path style="opacity:1" fill="#fffefd" d="M 296.5,387.5 C 296.5,388.167 296.5,388.833 296.5,389.5C 282.833,402.167 269.167,414.833 255.5,427.5C 240.833,413.5 226.5,399.167 212.5,384.5C 215.003,382.167 217.669,380.001 220.5,378C 225.167,376 229.833,376 234.5,378C 239.167,381.333 243.167,385.333 246.5,390C 250.72,393.703 255.386,394.37 260.5,392C 264.866,387.299 269.533,382.966 274.5,379C 283.738,377.241 291.072,380.074 296.5,387.5 Z"/></g>
<g><path style="opacity:1" fill="#e9ebf3" d="M 296.5,389.5 C 297.622,391.288 297.789,393.288 297,395.5C 294.097,401.407 290.764,407.073 287,412.5C 286.333,414.833 286.333,417.167 287,419.5C 290.476,425.971 295.643,430.805 302.5,434C 307.741,437.055 310.075,441.555 309.5,447.5C 293.074,448.644 278.074,444.644 264.5,435.5C 261.5,432.833 258.5,430.167 255.5,427.5C 269.167,414.833 282.833,402.167 296.5,389.5 Z"/></g>
</svg>
